<svg xmlns="http://www.w3.org/2000/svg" viewBox="0 0 64 64">
  <rect width="64" height="64" rx="16" fill="#f9eeff" />
  <circle cx="32" cy="34" r="23" fill="#ffffff" />
  <path d="M32 4l6 18H26L32 4z" fill="#ffd66b" />
  <path d="M29 8l3-4 3 4-3 14-3-14z" fill="#ff7eb6" opacity=".75" />
  <path d="M17 23c-4-8 2-13 9-8" fill="#ffc7df" />
  <path d="M47 23c4-8-2-13-9-8" fill="#ffc7df" />
  <path d="M19 33c0-11 8-17 18-17 10 0 18 8 18 19 0 13-10 23-24 23-11 0-20-7-20-18 0-4 3-7 8-7z" fill="#ffffff" />
  <path d="M16 26c4-8 13-13 24-10-4 5-12 7-21 7" fill="#ff7eb6" />
  <path d="M19 22c5-6 12-9 21-6-4 4-10 6-18 6" fill="#7b61ff" opacity=".8" />
  <circle cx="39" cy="35" r="3" fill="#352653" />
  <circle cx="40" cy="34" r="1" fill="#ffffff" />
  <path d="M49 43c-4 6-13 9-22 5" fill="none" stroke="#ff7eb6" stroke-width="4" stroke-linecap="round" />
  <path d="M6 46c5 3 11 3 17 0" fill="none" stroke="#7ee4c7" stroke-width="4" stroke-linecap="round" />
</svg>
